# xmcd
#
# Track frame offsets:
#	150
#	21367
#	43662
#	65023
#	80161
#	105838
#	122586
#	139102
#	166093
#	198787
#	217336
#	242036
#	263099
#
# Disc length: 3696 seconds
#
# Revision: 1
# Processed by: cddbd v1.5.2PL0 Copyright (c) Steve Scherf et al.
# Submitted via: audiograbber 1.83.01
#
DISCID=b60e6e0d
DTITLE=Keskinli Taþan Kardeþler - Keskinli Taþan Kardeþler - Merhum Kudret Taþa
DTITLE=n Anýsýna (2006)
DYEAR=1900
DGENRE=
TTITLE0=Saçlarýma Aklar Düþtü 
TTITLE1=Sensýn Derdýme Derman 
TTITLE2=DinekDaðý 
TTITLE3=Deðirmenin Bendine 
TTITLE4=Buluþalým keskinde
TTITLE5=Mavilim 
TTITLE6=Arap Kýzý 
TTITLE7=Yana Yana 
TTITLE8=Musam Turdaðýnda 
TTITLE9=O Zaman 
TTITLE10=Badý Sabah 
TTITLE11=Bugün ayýnýþýðý 
TTITLE12=Menevþe 
EXTD=
EXTT0=
EXTT1=
EXTT2=
EXTT3=
EXTT4=
EXTT5=
EXTT6=
EXTT7=
EXTT8=
EXTT9=
EXTT10=
EXTT11=
EXTT12=
PLAYORDER=
